<svg width="90" height="130" viewBox="0 0 90 130" fill="none" xmlns="http://www.w3.org/2000/svg" aria-hidden="true">
  <!-- Main vertical branch -->
  <path d="M46 4 Q44 38 43 72 Q42 98 46 126" stroke="#B7C2B0" stroke-width="2.2" stroke-linecap="round"/>
  <!-- Left twig -->
  <path d="M44 40 Q30 34 20 40" stroke="#B7C2B0" stroke-width="1.8" stroke-linecap="round"/>
  <!-- Right twig -->
  <path d="M43 72 Q58 66 67 72" stroke="#B7C2B0" stroke-width="1.8" stroke-linecap="round"/>
  <!-- Pear on left twig -->
  <path d="M20 40 Q15 44 14 52 Q13 60 17 65 Q21 69 26 67 Q31 64 31 56 Q31 47 26 42 Q23 39 20 40Z" stroke="#B7C2B0" stroke-width="2" stroke-linecap="round" fill="none"/>
  <!-- Left pear stem + leaf -->
  <path d="M20 38 Q21 32 22 28" stroke="#B7C2B0" stroke-width="1.5" stroke-linecap="round"/>
  <path d="M22 28 Q29 24 27 31 Q24 30 22 28Z" stroke="#B7C2B0" stroke-width="1.4" stroke-linecap="round" fill="none"/>
  <!-- Pear on right twig -->
  <path d="M67 72 Q62 76 61 84 Q60 93 64 98 Q68 102 73 100 Q78 97 78 88 Q78 79 73 74 Q70 71 67 72Z" stroke="#B7C2B0" stroke-width="2" stroke-linecap="round" fill="none"/>
  <!-- Right pear stem + leaf -->
  <path d="M67 70 Q68 64 69 60" stroke="#B7C2B0" stroke-width="1.5" stroke-linecap="round"/>
  <path d="M69 60 Q76 56 74 63 Q71 62 69 60Z" stroke="#B7C2B0" stroke-width="1.4" stroke-linecap="round" fill="none"/>
  <!-- Leaf on branch (upper) -->
  <path d="M44 22 Q34 17 35 25 Q40 25 44 22Z" stroke="#B7C2B0" stroke-width="1.4" fill="none" stroke-linecap="round"/>
  <!-- Leaf on branch (lower) -->
  <path d="M43 58 Q53 53 52 61 Q48 60 43 58Z" stroke="#B7C2B0" stroke-width="1.4" fill="none" stroke-linecap="round"/>
  <!-- Small buds on branch -->
  <circle cx="45" cy="96" r="2.5" stroke="#B7C2B0" stroke-width="1.3"/>
  <circle cx="44" cy="108" r="2" stroke="#B7C2B0" stroke-width="1.2"/>
</svg>
